{"title":"Fate/Zero ep 24","uid":9472551,"size":93157900,"categoryP":"video","categoryS":"tv_shows","magnet":"?xt=urn:btih:bae32f0819b370ac3df88c091f5b0be546536f10&amp;dn=Fate%2FZero+ep+24&amp;tr=udp%3A%2F%2Ftracker.openbittorrent.com%3A80&amp;tr=udp%3A%2F%2Fopen.demonii.com%3A1337&amp;tr=udp%3A%2F%2Ftracker.coppersurfer.tk%3A6969&amp;tr=udp%3A%2F%2Fexodus.desync.com%3A6969","seeders":1,"leechers":0,"uploader":"p7trick","files":-1,"time":1389571230,"description":"downloaded from watchcartoononline\n\nFate/Zero ep 24 OVA ENGLISH DUBBED\n_________________________________________________________\n\nFormat                                   : Flash Video\nFile size                                : 88.8 MiB\nDuration                                 : 25mn 18s\nOverall bit rate                         : 491 Kbps\nTagging application                      : Yet Another Metadata Injector for FLV - Version 1.8\n\nVideo\nFormat                                   : AVC\nFormat/Info                              : Advanced Video Codec\nFormat profile                           : &lt;a class=&quot;__cf_email__&quot; href=&quot;/cdn-cgi/l/email-protection&quot; data-cfemail=&quot;9ad2f3fdf2dad6a9b4ab&quot;&gt;[email&amp;#160;protected]&lt;/a&gt;&lt;script cf-hash='f9e31' type=&quot;text/javascript&quot;&gt;\n/* &lt;![CDATA[ */!function(){try{var t=&quot;currentScript&quot;in document?document.currentScript:function(){for(var t=document.getElementsByTagName(&quot;script&quot;),e=t.length;e--;)if(t[e].getAttribute(&quot;cf-hash&quot;))return t[e]}();if(t&amp;&amp;t.previousSibling){var e,r,n,i,c=t.previousSibling,a=c.getAttribute(&quot;data-cfemail&quot;);if(a){for(e=&quot;&quot;,r=parseInt(a.substr(0,2),16),n=2;a.length-n;n+=2)i=parseInt(a.substr(n,2),16)^r,e+=String.fromCharCode(i);e=document.createTextNode(e),c.parentNode.replaceChild(e,c)}}}catch(u){}}();/* ]]&gt; */&lt;/script&gt;\nFormat settings, CABAC                   : Yes\nFormat settings, ReFrames                : 5 frames\nCodec ID                                 : 7\nDuration                                 : 25mn 18s\nBit rate                                 : 345 Kbps\nWidth                                    : 852 pixels\nHeight                                   : 480 pixels\nDisplay aspect ratio                     : 16:9\nFrame rate mode                          : Constant\nFrame rate                               : 30.000 fps\nColor space                              : YUV\nChroma subsampling                       : 4:2:0\nBit depth                                : 8 bits\nScan type                                : Progressive\nBits/(Pixel*Frame)                       : 0.028\nStream size                              : 64.4 MiB (73%)\nWriting library                          : x264 core 129 r2230 1cffe9f\n\nAudio\nFormat                                   : AAC\nFormat/Info                              : Advanced Audio Codec\nFormat profile                           : LC\nCodec ID                                 : 10\nDuration                                 : 25mn 18s\nBit rate                                 : 126 Kbps\nChannel(s)                               : 2 channels\nChannel positions                        : Front: L R\nSampling rate                            : 44.1 KHz\nCompression mode                         : Lossy\nStream size                              : 24.0 MiB (27%)\n\n________________________________________________________\n\n\nFor updates/requests:\nTwitter - @p7tricktorrent\nFacebook - /p7tricktorrent\nTPB - /user/p7trick/\nKAT - /user/iPirate7\n_________________________________________________________\n\nSEED!\n\nshare ratio:\n&quot;Scumbag = 0.1:1\nLeecher = 0.999:1\nMinimum = 1:1\nGood = 3:1\nGreat = 5:1\nAwesome = 10:1\n1337 = 100:1&quot;","torrent":{"xt":"urn:btih:bae32f0819b370ac3df88c091f5b0be546536f10","amp;dn":"Fate%2FZero+ep+24","amp;tr":["udp%3A%2F%2Ftracker.openbittorrent.com%3A80","udp%3A%2F%2Fopen.demonii.com%3A1337","udp%3A%2F%2Ftracker.coppersurfer.tk%3A6969","udp%3A%2F%2Fexodus.desync.com%3A6969"],"infoHash":"bae32f0819b370ac3df88c091f5b0be546536f10","infoHashBuffer":{"type":"Buffer","data":[186,227,47,8,25,179,112,172,61,248,140,9,31,91,11,229,70,83,111,16]},"announce":[],"urlList":[]}}